<?xml version="1.0" encoding="utf-8"?>
<!-- Generator: Adobe Illustrator 19.0.0, SVG Export Plug-In . SVG Version: 6.00 Build 0)  -->
<svg version="1.0" id="Capa_1" xmlns="http://www.w3.org/2000/svg" xmlns:xlink="http://www.w3.org/1999/xlink" x="0px" y="0px"
	 viewBox="0 0 20 20" style="enable-background:new 0 0 20 20;" xml:space="preserve">
<style type="text/css">
	.st0{fill:#FFFFFF;}
</style>
<g>
	<g>
		<path class="st0" d="M14.1,3.5C13,2.4,11.6,1.8,10,1.8c-1.5,0-3,0.6-4.1,1.7c-2,2-2.3,5.8-0.5,8.1l4.6,6.6l4.6-6.6
			C16.4,9.3,16.1,5.6,14.1,3.5L14.1,3.5z M10.1,9.7C9,9.7,8,8.7,8,7.6c0-1.2,1-2.1,2.1-2.1c1.2,0,2.1,0.9,2.1,2.1
			C12.2,8.7,11.3,9.7,10.1,9.7L10.1,9.7z"/>
	</g>
</g>
</svg>
