<?xml version="1.0" encoding="utf-8"?>
<!-- Generator: Adobe Illustrator 19.0.0, SVG Export Plug-In . SVG Version: 6.00 Build 0)  -->
<svg version="1.0" id="Capa_1" xmlns="http://www.w3.org/2000/svg" xmlns:xlink="http://www.w3.org/1999/xlink" x="0px" y="0px"
	 viewBox="0 0 30 30" style="enable-background:new 0 0 30 30;" xml:space="preserve">
<style type="text/css">
	.st0{fill:#FFFFFF;}
</style>
<g>
	<path id="XMLID_5_" class="st0" d="M15,17.8c1.5,0,2.8-1.2,2.8-2.8c0-0.6-0.2-1.2-0.5-1.6c-0.5-0.7-1.3-1.1-2.2-1.1
		s-1.7,0.5-2.2,1.1c-0.3,0.5-0.5,1-0.5,1.6C12.2,16.5,13.5,17.8,15,17.8L15,17.8z"/>
	<path id="XMLID_4_" class="st0" d="M21,11.6V9h-0.3h-2.3v2.7L21,11.6z"/>
	<path class="st0" d="M15,1.3C7.4,1.3,1.3,7.4,1.3,15S7.5,28.8,15,28.8c7.6,0,13.8-6.2,13.8-13.8S22.6,1.3,15,1.3L15,1.3z
		 M22.8,13.4v6.4c0,1.7-1.4,3-3,3h-9.6c-1.7,0-3-1.4-3-3v-9.6c0-1.7,1.4-3,3-3h9.6c1.7,0,3,1.4,3,3V13.4z"/>
	<path id="XMLID_1_" class="st0" d="M19.3,15c0,2.4-1.9,4.3-4.3,4.3s-4.3-1.9-4.3-4.3c0-0.6,0.1-1.1,0.3-1.6H8.7v6.4
		c0,0.8,0.7,1.5,1.5,1.5h9.6c0.8,0,1.5-0.7,1.5-1.5v-6.4H19C19.2,13.9,19.3,14.4,19.3,15L19.3,15z"/>
</g>
</svg>
