<?xml version="1.0" encoding="utf-8"?>
<!-- Generator: Adobe Illustrator 19.0.0, SVG Export Plug-In . SVG Version: 6.00 Build 0)  -->
<svg version="1.0" id="Capa_1" xmlns="http://www.w3.org/2000/svg" xmlns:xlink="http://www.w3.org/1999/xlink" x="0px" y="0px"
	 viewBox="0.1 -0.1 20 20" style="enable-background:new 0.1 -0.1 20 20;" xml:space="preserve">
<style type="text/css">
	.st0{fill:#FFFFFF;}
</style>
<path class="st0" d="M7.4,7.6L4.2,4.3C4.6,3.9,5,3.5,5.4,3c0.2-0.2,0.5-0.2,0.7,0l2.5,2.5c0.2,0.2,0.2,0.5,0,0.7l-1,1.2
	C7.5,7.4,7.5,7.5,7.4,7.6L7.4,7.6z M10.1,12.9c-0.5-0.5-1-0.9-1.5-1.4s-1-1-1.4-1.5S6.7,8.8,6.9,8.3L3.5,5C2.7,5.8,2.8,7.7,3.7,9.5
	c0.4,0.7,0.8,1.4,1.3,2.1c0.5,0.6,1,1.3,1.6,1.8C7.2,14,7.8,14.5,8.4,15c0.7,0.5,1.3,1,2.1,1.3c1.7,0.9,3.7,0.9,4.5,0.2l-3.4-3.4
	C11.2,13.3,10.6,13.3,10.1,12.9L10.1,12.9z M17,13.9l-2.5-2.5c-0.2-0.2-0.5-0.2-0.7,0l-0.6,0.5l-0.5,0.5c-0.1,0.1-0.1,0.1-0.2,0.2
	l3.3,3.3c0.4-0.4,0.8-0.8,1.3-1.3C17.2,14.4,17.2,14.1,17,13.9L17,13.9z"/>
</svg>
