<?xml version="1.0" encoding="utf-8"?>
<!-- Generator: Adobe Illustrator 19.0.0, SVG Export Plug-In . SVG Version: 6.00 Build 0)  -->
<svg version="1.0" id="Capa_1" xmlns="http://www.w3.org/2000/svg" xmlns:xlink="http://www.w3.org/1999/xlink" x="0px" y="0px"
	 viewBox="0 0 30 30" style="enable-background:new 0 0 30 30;" xml:space="preserve">
<style type="text/css">
	.st0{fill:#FFFFFF;}
</style>
<g>
	<path class="st0" d="M15,1.3C7.4,1.3,1.3,7.4,1.3,15c0,7.6,6.2,13.8,13.7,13.8c7.6,0,13.8-6.2,13.8-13.8C28.8,7.4,22.6,1.3,15,1.3
		L15,1.3z M23.4,18.1c-0.1,1.1-1,2.6-2.2,2.8c-3.9,0.3-8.5,0.3-12.5,0c-1.3-0.2-2.1-1.7-2.2-2.8c-0.2-2.4-0.2-3.8,0-6.2
		c0.1-1.1,0.9-2.7,2.2-2.8c4-0.3,8.6-0.3,12.5,0c1.4,0.1,2.1,1.5,2.2,2.6C23.6,14.2,23.6,15.7,23.4,18.1L23.4,18.1z M23.4,18.1"/>
	<path class="st0" d="M13.3,18.4l5.2-3.4l-5.2-3.4V18.4z M13.3,18.4"/>
</g>
</svg>
