<?xml version="1.0" encoding="utf-8"?>
<!-- Generator: Adobe Illustrator 19.0.0, SVG Export Plug-In . SVG Version: 6.00 Build 0)  -->
<svg version="1.0" id="Capa_1" xmlns="http://www.w3.org/2000/svg" xmlns:xlink="http://www.w3.org/1999/xlink" x="0px" y="0px"
	 viewBox="0 0 30 30" style="enable-background:new 0 0 30 30;" xml:space="preserve">
<style type="text/css">
	.st0{fill:#A8A8A8;}
</style>
<g>
	<path class="st0" d="M3.9,10.7c0.3,0.2,1.4,1,3.1,2.2c1.8,1.2,3.1,2.1,4,2.8c0.1,0.1,0.3,0.2,0.7,0.5c0.3,0.2,0.6,0.4,0.8,0.6
		c0.2,0.1,0.5,0.3,0.8,0.5c0.3,0.2,0.6,0.3,0.9,0.4c0.3,0.1,0.5,0.1,0.8,0.1h0c0.2,0,0.5,0,0.8-0.1c0.3-0.1,0.6-0.2,0.9-0.4
		c0.3-0.2,0.6-0.4,0.8-0.5c0.2-0.1,0.5-0.3,0.8-0.6c0.3-0.2,0.6-0.4,0.7-0.5c0.9-0.7,3.3-2.3,7.2-5c0.7-0.5,1.4-1.2,1.9-1.9
		c0.5-0.7,0.8-1.5,0.8-2.3c0-0.7-0.2-1.3-0.7-1.7c-0.5-0.5-1.1-0.7-1.7-0.7H3.7c-0.8,0-1.4,0.3-1.8,0.8c-0.4,0.5-0.6,1.2-0.6,2
		c0,0.6,0.3,1.3,0.8,2.1C2.7,9.7,3.3,10.3,3.9,10.7L3.9,10.7z M3.9,10.7"/>
	<path class="st0" d="M27.2,12.4c-3.4,2.3-5.9,4-7.6,5.3c-0.6,0.4-1.1,0.8-1.4,1c-0.4,0.2-0.8,0.5-1.4,0.7c-0.6,0.3-1.2,0.4-1.7,0.4
		h0c-0.5,0-1.1-0.1-1.7-0.4c-0.6-0.3-1.1-0.5-1.5-0.7c-0.4-0.2-0.8-0.6-1.4-1c-1.4-1-3.9-2.8-7.6-5.3C2.2,12,1.7,11.5,1.3,11v12.2
		c0,0.7,0.2,1.3,0.7,1.7c0.5,0.5,1.1,0.7,1.7,0.7h22.6c0.7,0,1.3-0.2,1.7-0.7c0.5-0.5,0.7-1.1,0.7-1.7V11
		C28.3,11.5,27.8,12,27.2,12.4L27.2,12.4z M27.2,12.4"/>
</g>
</svg>
