<?xml version="1.0" encoding="utf-8"?>
<!-- Generator: Adobe Illustrator 19.0.0, SVG Export Plug-In . SVG Version: 6.00 Build 0)  -->
<svg version="1.0" id="Capa_1" xmlns="http://www.w3.org/2000/svg" xmlns:xlink="http://www.w3.org/1999/xlink" x="0px" y="0px"
	 viewBox="0 0 30 30" style="enable-background:new 0 0 30 30;" xml:space="preserve">
<style type="text/css">
	.st0{fill:#A8A8A8;}
</style>
<g>
	<path class="st0" d="M15,1.3C7.4,1.3,1.3,7.4,1.3,15c0,7.6,6.2,13.8,13.7,13.8c7.6,0,13.8-6.2,13.8-13.8C28.8,7.4,22.6,1.3,15,1.3
		L15,1.3z M18.6,15h-2.3v8.2h-3.1V15h-2.1v-2.8l2.1,0l0-1.7c0-2.3,0.6-3.7,3.4-3.7h2.3v2.8h-1.4c-1.1,0-1.1,0.4-1.1,1.1v1.4h2.6
		L18.6,15z M18.6,15"/>
</g>
</svg>
