<?xml version="1.0" encoding="utf-8"?>
<!-- Generator: Adobe Illustrator 19.0.0, SVG Export Plug-In . SVG Version: 6.00 Build 0)  -->
<svg version="1.0" id="Capa_1" xmlns="http://www.w3.org/2000/svg" xmlns:xlink="http://www.w3.org/1999/xlink" x="0px" y="0px"
	 viewBox="0 0 30 30" style="enable-background:new 0 0 30 30;" xml:space="preserve">
<style type="text/css">
	.st0{fill:#A8A8A8;}
</style>
<g>
	<path class="st0" d="M15,1.3C7.4,1.3,1.3,7.4,1.3,15c0,7.6,6.2,13.8,13.7,13.8c7.6,0,13.8-6.2,13.8-13.8C28.8,7.4,22.6,1.3,15,1.3
		L15,1.3z M16.1,18.7c-1-0.1-1.4-0.6-2.2-1c-0.4,2.3-1,4.4-2.5,5.6c-0.5-3.4,0.7-6,1.3-8.7c-0.9-1.6,0.1-4.8,2.1-4
		c2.4,1-2.1,5.9,0.9,6.5c3.2,0.6,4.5-5.6,2.5-7.6c-2.9-2.9-8.4-0.1-7.7,4.1c0.2,1,1.2,1.3,0.4,2.7c-1.8-0.4-2.4-1.9-2.3-3.8
		c0.1-3.2,2.8-5.4,5.6-5.7c3.5-0.4,6.7,1.3,7.2,4.5C21.8,15,19.8,19,16.1,18.7L16.1,18.7z M16.1,18.7"/>
</g>
</svg>
