<?xml version="1.0" encoding="utf-8"?>
<!-- Generator: Adobe Illustrator 19.0.0, SVG Export Plug-In . SVG Version: 6.00 Build 0)  -->
<svg version="1.0" id="Capa_1" xmlns="http://www.w3.org/2000/svg" xmlns:xlink="http://www.w3.org/1999/xlink" x="0px" y="0px"
	 viewBox="0 0 30 30" style="enable-background:new 0 0 30 30;" xml:space="preserve">
<style type="text/css">
	.st0{fill:#A8A8A8;}
</style>
<path class="st0" d="M9.9,10.1L3.5,3.8C4.4,2.9,5.2,2.1,6,1.3c0.4-0.4,1-0.4,1.4,0l4.9,5c0.4,0.4,0.4,1,0,1.4l-2.1,2.1
	C10.1,9.8,10,10,9.9,10.1L9.9,10.1z M15.1,20.5c-1-0.9-2-1.8-3-2.8c-1-1-1.9-2-2.8-3c-0.7-0.8-0.9-2.1-0.5-3.1L2.3,5
	C0.8,6.6,1,10.4,2.6,13.8c0.7,1.5,1.6,2.8,2.6,4.1c1,1.2,2,2.4,3.1,3.5c1.1,1.1,2.3,2.2,3.5,3.1c1.3,1,2.6,1.9,4.1,2.6
	c3.4,1.7,7.3,1.8,8.8,0.3l-6.5-6.5C17.2,21.3,16,21.2,15.1,20.5L15.1,20.5z M28.5,22.4l-4.9-5c-0.4-0.4-1-0.4-1.4,0l-1.1,1.1l-1,1
	c-0.1,0.1-0.3,0.2-0.4,0.3l6.4,6.4c0.8-0.8,1.6-1.6,2.5-2.5C28.8,23.4,28.9,22.8,28.5,22.4L28.5,22.4z M28.5,22.4"/>
</svg>
