<?xml version="1.0" encoding="utf-8"?>
<!-- Generator: Adobe Illustrator 19.0.0, SVG Export Plug-In . SVG Version: 6.00 Build 0)  -->
<svg version="1.0" id="Capa_1" xmlns="http://www.w3.org/2000/svg" xmlns:xlink="http://www.w3.org/1999/xlink" x="0px" y="0px"
	 viewBox="0 0 34.9 34.9" style="enable-background:new 0 0 34.9 34.9;" xml:space="preserve">
<style type="text/css">
	.st0{fill:#654EA3;}
	.st1{fill:#FFFFFF;}
</style>
<rect id="XMLID_22_" x="0" y="0" class="st0" width="34.9" height="34.9"/>
<g id="XMLID_1_">
	<g id="XMLID_6_">
		<path id="XMLID_8_" class="st1" d="M29.1,29.1c6.4-6.4,6.4-16.9,0-23.4c-6.4-6.4-16.9-6.4-23.4,0c-6.4,6.4-6.4,16.9,0,23.4
			C12.2,35.5,22.6,35.5,29.1,29.1L29.1,29.1z M6.9,6.9c5.8-5.8,15.2-5.8,21,0s5.8,15.2,0,21.1c-5.8,5.8-15.2,5.8-21.1,0
			C1.1,22.1,1.1,12.7,6.9,6.9L6.9,6.9z"/>
	</g>
	<path id="XMLID_2_" class="st1" d="M11.8,18.1H23c0.4,0,0.7-0.3,0.7-0.7s-0.3-0.7-0.7-0.7H11.8c-0.4,0-0.7,0.3-0.7,0.7
		C11.1,17.8,11.4,18.1,11.8,18.1L11.8,18.1z"/>
</g>
</svg>
