<?xml version="1.0" encoding="utf-8"?>
<!-- Generator: Adobe Illustrator 19.0.0, SVG Export Plug-In . SVG Version: 6.00 Build 0)  -->
<svg version="1.0" id="Capa_1" xmlns="http://www.w3.org/2000/svg" xmlns:xlink="http://www.w3.org/1999/xlink" x="0px" y="0px"
	 viewBox="0 0 34.9 34.9" style="enable-background:new 0 0 34.9 34.9;" xml:space="preserve">
<style type="text/css">
	.st0{fill:#654EA3;}
	.st1{fill:#FFFFFF;}
</style>
<rect id="XMLID_2_" x="0" y="0" class="st0" width="34.9" height="34.9"/>
<g id="XMLID_1_">
	<path id="XMLID_3_" class="st1" d="M17.4,23.6c0.2,0,0.4-0.1,0.6-0.2c0.1-0.1,0.2-0.4,0.2-0.6v-4.5h4.5c0.2,0,0.4-0.1,0.6-0.2
		c0.1-0.1,0.2-0.4,0.2-0.6c0-0.5-0.4-0.8-0.8-0.8h-4.5v-4.5c0-0.5-0.4-0.8-0.8-0.8c-0.5,0-0.8,0.4-0.8,0.8v4.5h-4.5
		c-0.5,0-0.8,0.4-0.8,0.8c0,0.5,0.4,0.8,0.8,0.8h4.5v4.5C16.6,23.2,16.9,23.6,17.4,23.6L17.4,23.6z"/>
	<path id="XMLID_8_" class="st1" d="M29.1,29.1c6.4-6.4,6.4-16.9,0-23.4c-6.4-6.4-16.9-6.4-23.4,0c-6.4,6.4-6.4,16.9,0,23.4
		C12.2,35.5,22.6,35.5,29.1,29.1L29.1,29.1z M6.9,6.9c5.8-5.8,15.2-5.8,21,0s5.8,15.2,0,21.1c-5.8,5.8-15.2,5.8-21.1,0
		C1.1,22.1,1.1,12.7,6.9,6.9L6.9,6.9z"/>
</g>
</svg>
