<?xml version="1.0" encoding="utf-8"?>
<!-- Generator: Adobe Illustrator 19.0.0, SVG Export Plug-In . SVG Version: 6.00 Build 0)  -->
<svg version="1.0" id="Capa_1" xmlns="http://www.w3.org/2000/svg" xmlns:xlink="http://www.w3.org/1999/xlink" x="0px" y="0px"
	 viewBox="0 0 149.9 149.9" style="enable-background:new 0 0 149.9 149.9;" xml:space="preserve">
<style type="text/css">
	.st0{fill:#654EA3;}
</style>
<g id="XMLID_7_">
	<path id="XMLID_17_" class="st0" d="M127,100.3c-0.9,0.8-0.9,2.2-0.1,3.1c0.4,0.4,1,0.7,1.6,0.7c0.5,0,1.1-0.2,1.5-0.6
		c4.5-4.3,8.1-9.3,10.8-15c0.8-1.6,0.8-3.4,0.2-5s-1.9-2.9-3.5-3.6c-4.7-1.9-9.6-3.2-14.6-3.7c1.4-4.5,2.1-9.1,2.3-13.8
		c0-1.7-0.6-3.4-1.8-4.6c-1.2-1.2-2.9-1.9-4.6-1.8c-1.8,0.1-3.7,0.2-5.5,0.4c-0.1-6-1.3-11.9-3.5-17.6c-0.6-1.6-1.9-2.9-3.5-3.6
		c-1.6-0.7-3.4-0.6-5,0.1c-1.6,0.7-3.2,1.5-4.7,2.4c-1,0.6-1.4,1.9-0.8,3c0.6,1,1.9,1.4,3,0.8c1.4-0.8,2.8-1.6,4.3-2.2
		c0.5-0.2,1-0.2,1.5,0s0.9,0.6,1.1,1.1c2.1,5.4,3.2,11.1,3.2,16.8c-4.4,1-8.8,2.5-12.8,4.6C94.6,49,89,37.1,80.1,27.7
		c-1.3-1.4-3.2-2.2-5.1-2.2s-3.8,0.8-5.1,2.2c-4.1,4.3-7.5,9.2-10.1,14.4c-3.4-2.7-7.1-5-11.1-6.8c-1.6-0.7-3.4-0.7-5-0.1
		c-1.6,0.7-2.9,2-3.5,3.6c-2.2,5.7-3.4,11.6-3.5,17.6c-1.8-0.2-3.6-0.4-5.5-0.5c-1.7-0.1-3.4,0.6-4.6,1.8s-1.9,2.9-1.8,4.6
		c0.1,4.7,0.9,9.4,2.3,13.8c-5,0.5-9.9,1.8-14.6,3.7c-1.6,0.7-2.9,2-3.5,3.6s-0.5,3.4,0.2,5c4,8.2,10,15.2,17.4,20.3h-6.9
		c-4.4,0-7.9,3.6-7.9,7.9c0,4.4,3.6,7.9,7.9,7.9h110.7c4.4,0,7.9-3.6,7.9-7.9c0-4.4-3.6-7.9-7.9-7.9H94c5.9-2.6,11.3-6.3,16-10.9
		c5-5,8.9-10.9,11.6-17.4c5,0.4,9.8,1.6,14.4,3.5c0.5,0.2,0.9,0.6,1.1,1.1c0.2,0.5,0.2,1-0.1,1.5C134.4,91.7,131.1,96.4,127,100.3z
		 M73.1,30.7c0.5-0.5,1.2-0.8,1.9-0.8c0.7,0,1.4,0.3,1.9,0.8c8.9,9.5,14.3,21.6,15.2,34.5c0,0.2,0,0.3,0,0.5
		c0.1,1.2,0.1,2.5,0.1,3.7c0,14.4-5.5,28.2-15.4,38.7c-0.4,0.4-0.9,0.7-1.5,0.8c-0.2,0-0.4,0-0.6,0h-0.1c-0.6-0.1-1.2-0.3-1.6-0.8
		c-9.9-10.5-15.4-24.2-15.4-38.7S63.2,41.2,73.1,30.7z M44.3,40.3c0.2-0.5,0.6-0.9,1.1-1.1c0.5-0.2,1-0.2,1.5,0
		c4,1.8,7.7,4.2,11.1,7c-2,5-3.4,10.2-4.1,15.5c-4-2.1-8.3-3.7-12.8-4.6C41.1,51.4,42.2,45.7,44.3,40.3z M13.1,86.6
		c-0.2-0.5-0.3-1-0.1-1.5s0.6-0.9,1.1-1.1c4.6-1.9,9.5-3.1,14.4-3.5C31.1,86.9,35,92.9,40,97.9c2,2,4.1,3.8,6.3,5.4
		c0.4,0.3,0.8,0.4,1.3,0.4c0.7,0,1.3-0.3,1.8-0.9c0.7-1,0.5-2.3-0.5-3.1c-2-1.5-4-3.1-5.8-4.9c-4.9-4.9-8.7-10.8-11-17.1
		c0-0.2-0.1-0.4-0.2-0.5c-1.7-4.7-2.7-9.8-2.8-14.9c0-0.5,0.2-1,0.6-1.4s0.9-0.6,1.4-0.6c7.9,0.2,15.6,2.4,22.4,6.3
		c0,0.9-0.1,1.9-0.1,2.9C53.4,84.1,58.6,98,68,109H35.2C25.6,104.1,17.7,96.3,13.1,86.6z M133.9,116.8c0,2-1.6,3.6-3.6,3.6H19.7
		c-2,0-3.6-1.6-3.6-3.6s1.6-3.6,3.6-3.6h110.7C132.3,113.2,133.9,114.8,133.9,116.8z M106.9,94.8c-6.6,6.6-14.9,11.1-24,13
		C91.8,97,96.6,83.5,96.6,69.3c0-1,0-1.9-0.1-2.9c6.8-3.9,14.5-6,22.3-6.2c0.5,0,1,0.2,1.4,0.6c0.4,0.4,0.6,0.9,0.6,1.4
		c-0.1,5.1-1.1,10.1-2.8,14.9c-0.1,0.2-0.1,0.3-0.2,0.5C115.5,84.1,111.8,89.9,106.9,94.8z"/>
</g>
</svg>
