<?xml version="1.0" encoding="utf-8"?>
<!-- Generator: Adobe Illustrator 19.0.0, SVG Export Plug-In . SVG Version: 6.00 Build 0)  -->
<svg version="1.0" id="Capa_1" xmlns="http://www.w3.org/2000/svg" xmlns:xlink="http://www.w3.org/1999/xlink" x="0px" y="0px"
	 viewBox="0 0 149.9 149.9" style="enable-background:new 0 0 149.9 149.9;" xml:space="preserve">
<style type="text/css">
	.st0{fill:#654EA3;}
</style>
<g id="XMLID_3_">
	<path id="XMLID_174_" class="st0" d="M105.2,137.7c0-2.9,0-23.6,0-26.5c0-2.5-1.5-4.7-3.7-5.6V98c0-3-2.5-5.5-5.5-5.5H73.6
		c-1,0-1.8,0.8-1.8,1.8s0.8,1.8,1.8,1.8h22.3c1.1,0,2,0.9,2,2v7.1H49.4v-7.1c0-1.1,0.9-2,2-2c1.8,0,12.5,0,14.1,0
		c1,0,1.8-0.8,1.8-1.8s-0.8-1.8-1.8-1.8h-4.9L65.9,33c2.4-0.3,4.3-2.4,4.3-4.9c0-2.7-2.2-4.9-4.9-4.9H10.1c-2.7,0-4.9,2.2-4.9,4.9
		c0,2.5,1.9,4.6,4.3,4.9l1,11.5c0.1,1,0.9,1.7,1.9,1.6c1-0.1,1.7-0.9,1.6-1.9L13,33h49.3L57,92.4h-5.7c-3,0-5.5,2.5-5.5,5.5v7.6
		c-4.2,1.8-3.7,6.3-3.7,6.4c-3.9,0-15.4,0-19.2,0c-1.7,0-3-1-3-1.9l-5.2-57.6c-0.1-1-0.9-1.7-1.9-1.6c-1,0.1-1.7,0.9-1.6,1.9
		l5.2,57.6c0.3,2.9,3.1,5.1,6.6,5.1h2.4v4.2c-1.1,0-2.2,0.5-2.9,1.4c-1.6,1.9-0.7,3.9-0.7,4.8c1,7.4-0.1,12.3-0.2,13.4
		c-0.3,2.4,1.5,4.5,3.9,4.5h22.7c1.9,0,49.1,0,51,0C102.5,143.7,105.2,141,105.2,137.7z M10.1,29.5c-0.8,0-1.4-0.6-1.4-1.4
		s0.6-1.4,1.4-1.4h55.1c0.8,0,1.4,0.6,1.4,1.4s-0.6,1.4-1.4,1.4C62.4,29.5,12.9,29.5,10.1,29.5z M99.5,108.7
		c1.2,0.2,2.2,1.2,2.2,2.5v4.4H45.6l0,0c0-2.4-0.2-5,0.5-5.9c0.5-0.7,1.3-1,2-1C101.5,108.7,99.2,108.6,99.5,108.7z M42.1,115.5
		c0,1.6,0,2.6,0,4.2H28.9v-4.2H42.1z M25,139.7c0.1-1,1.3-6.6,0.2-14.4l-0.2-1.6c0-0.3,0.2-0.5,0.4-0.5h1.7h15v8.3
		c0.2,5-0.4,6.6,0.5,8.7C25.1,140.1,24.8,140.5,25,139.7z M48.1,140.2c-1.4,0-2.5-1.1-2.5-2.5v-4.5h39.8c1,0,1.8-0.8,1.8-1.8
		s-0.8-1.8-1.8-1.8H45.6c0-2.2,0-8.4,0-10.6h56v10.6h-8c-1,0-1.8,0.8-1.8,1.8s0.8,1.8,1.8,1.8h8v4.5c0,1.4-1.1,2.5-2.5,2.5H48.1
		L48.1,140.2z"/>
	<path id="XMLID_171_" class="st0" d="M21.9,72.5c0,8.7,7.1,15.8,15.8,15.8s15.8-7.1,15.8-15.8s-7.1-15.8-15.8-15.8
		S21.9,63.8,21.9,72.5z M37.7,60.2c6.7,0,12.2,5.5,12.2,12.2s-5.5,12.2-12.2,12.2s-12.2-5.5-12.2-12.2
		C25.4,65.7,30.9,60.2,37.7,60.2z"/>
	<path id="XMLID_2_" class="st0" d="M29.1,44.3h17.2c1,0,1.8-0.8,1.8-1.8s-0.8-1.8-1.8-1.8H29.1c-1,0-1.8,0.8-1.8,1.8
		S28.1,44.3,29.1,44.3z"/>
	<path id="XMLID_1_" class="st0" d="M29.1,50.8h17.2c1,0,1.8-0.8,1.8-1.8s-0.8-1.8-1.8-1.8H29.1c-1,0-1.8,0.8-1.8,1.8
		S28.1,50.8,29.1,50.8z"/>
	<g id="XMLID_89_">
		<path id="XMLID_157_" class="st0" d="M130.5,47.9c1.2-3.6-1.6-7.3-5.4-7.3h-1.5v-7.5c0-2.7-1.2-5.1-3.1-6.7v-9h6.2
			c3.1,0,5.6-2.5,5.6-5.6s-2.5-5.6-5.6-5.6h-17.9c-9.8,0-13.5,8-15.3,9.6c-2,2.4-1.6,6,0.9,7.9c1.7,1.4,3.6,1.2,3.5,1.2
			c1.7,0,3.3-0.8,4.4-2.1l3-3.8c0.8-1.1,2.1-1.7,3.5-1.7h0.4v9c-1.9,1.6-3.1,4-3.1,6.7v7.5h-1.5c-3.1,0-5.6,2.5-5.6,5.6
			c0,0.6,0.1,1.2,0.3,1.7c-8,0.8-14.3,7.6-14.3,15.9v3.4c0,1.1,0.9,2,2,2s2-0.9,2-2v-3.4c0-6.6,5.4-11.9,11.9-11.9
			c2.9,0,24.2,0,27.9,0c6.6,0,11.9,5.4,11.9,11.9v64c0,6.6-5.4,11.9-11.9,11.9H115h-0.1v4h0.1h13.8c8.8,0,16-7.2,16-16v-64
			C144.8,55.5,138.6,48.7,130.5,47.9z M108.9,13.3c-2.6,0-5,1.2-6.6,3.2c-2.9,3.3-3,4.4-4.3,4.4l0,0c-1.6-0.2-2-1.7-1.3-2.6l3-3.8
			c2.2-2.8,5.6-4.4,9.1-4.4h17.9c0.9,0,1.6,0.7,1.6,1.6s-0.7,1.6-1.6,1.6h-8.1C115.4,13.3,111.7,13.3,108.9,13.3z M116.4,28.5
			c0.2,0,0.3,0.1,0.4,0.2c1.7,0.7,2.8,2.4,2.8,4.3v7.5h-9.4V33C110.2,29.8,113.4,27.6,116.4,28.5z M113.3,24.4v-7h3.2v7
			C115.5,24.2,114.4,24.2,113.3,24.4z M125.2,47.8h-20.4c-0.9,0-1.6-0.7-1.6-1.6s0.7-1.6,1.6-1.6c4.7,0,16,0,20.4,0
			c0.9,0,1.6,0.7,1.6,1.6S126,47.8,125.2,47.8z"/>
		<path id="XMLID_161_" class="st0" d="M114.9,131.2C115,131.2,115,131.2,114.9,131.2C115,131.2,115,131.2,114.9,131.2
			c5.9,0,12.1,0,16.6,0c2.5,0,4.6-2.1,4.6-4.6v-5.2c0-1.1-0.9-2-2-2s-2,0.9-2,2v5.2c0,0.3-0.2,0.5-0.5,0.5h-16.5H115h-12.1v4
			C106.8,131.2,110.5,131.2,114.9,131.2z"/>
		<path id="XMLID_162_" class="st0" d="M97.7,73.1c0-0.3,0.2-0.5,0.5-0.5h16.7h0.1h16.6c0.3,0,0.5,0.2,0.5,0.5v38.8c0,1.1,0.9,2,2,2
			s2-0.9,2-2V73.1c0-2.5-2.1-4.6-4.6-4.6H115h-0.1H98.3c-2.5,0-4.6,2.1-4.6,4.6V93h4V73.1z"/>
		<path id="XMLID_163_" class="st0" d="M127.8,62.6c1.1,0,2-0.9,2-2s-0.9-2-2-2H99.5c-1.1,0-2,0.9-2,2s0.9,2,2,2H127.8z"/>
		<path id="XMLID_164_" class="st0" d="M104.8,109h18.6c1.1,0,2-0.9,2-2s-0.9-2-2-2h-18.6c-1.1,0-2,0.9-2,2S103.7,109,104.8,109z"/>
		<path id="XMLID_165_" class="st0" d="M89.1,76.5L89.1,76.5v-0.3l0,0c-0.1-1-1-1.7-2-1.7s-1.8,0.7-2,1.7l0,0v0.3l0,0v16.6h4V76.5z"
			/>
		<polygon id="XMLID_166_" class="st0" points="103.1,139.7 99.1,143.7 114.9,143.7 114.9,139.7 		"/>
		<path id="XMLID_169_" class="st0" d="M113.6,79.8c-1.1,0-2.1,0.5-2.7,1.4l-4.1,5.7c-2.7,3.8-2,9.2,1.7,11.9
			c1.5,1.1,3.3,1.7,4.9,1.7c0.1,0,0.1,0,0.2,0s0.1,0,0.2,0h0.1c6.9-0.3,10.5-8.1,6.6-13.7l-4.1-5.7
			C115.7,80.4,114.7,79.8,113.6,79.8z M116.3,95.7L116.3,95.7c-4,3.1-9.3-2.1-6.2-6.4l3.5-4.9l3.5,4.9
			C118.6,91.3,118.2,94.2,116.3,95.7z"/>
		<path id="XMLID_170_" class="st0" d="M104.8,116.4h18.6c1.1,0,2-0.9,2-2s-0.9-2-2-2h-18.6c-1.1,0-2,0.9-2,2
			S103.7,116.4,104.8,116.4z"/>
	</g>
</g>
</svg>
