<?xml version="1.0" encoding="utf-8"?>
<!-- Generator: Adobe Illustrator 19.0.0, SVG Export Plug-In . SVG Version: 6.00 Build 0)  -->
<svg version="1.0" id="Capa_1" xmlns="http://www.w3.org/2000/svg" xmlns:xlink="http://www.w3.org/1999/xlink" x="0px" y="0px"
	 viewBox="0 0 149.9 149.9" style="enable-background:new 0 0 149.9 149.9;" xml:space="preserve">
<style type="text/css">
	.st0{fill:#654EA3;}
</style>
<g>
	<path id="XMLID_29_" class="st0" d="M133,123.4H17c-1.1,0-1.9,0.9-1.9,1.9s0.9,1.9,1.9,1.9h116c1.1,0,1.9-0.9,1.9-1.9
		S134.1,123.4,133,123.4L133,123.4z"/>
	<path id="XMLID_28_" class="st0" d="M133,131.1H17c-1.1,0-1.9,0.9-1.9,1.9s0.9,1.9,1.9,1.9h116c1.1,0,1.9-0.9,1.9-1.9
		S134.1,131.1,133,131.1L133,131.1z"/>
	<path class="st0" d="M133,22.7h-6.4v-1.9c0-3.2-2.6-5.7-5.7-5.7c-3.2,0-5.7,2.6-5.7,5.7v1.9H96v-1.9c0-3.2-2.6-5.7-5.7-5.7
		c-3.2,0-5.7,2.6-5.7,5.7v1.9H65.4v-1.9c0-3.2-2.6-5.7-5.7-5.7c-3.2,0-5.7,2.6-5.7,5.7v1.9H34.8v-1.9c0-3.2-2.6-5.7-5.7-5.7
		c-3.2,0-5.7,2.6-5.7,5.7v1.9H17c-1.1,0-1.9,0.9-1.9,1.9v93.1c0,1.1,0.9,1.9,1.9,1.9h116c1.1,0,1.9-0.9,1.9-1.9V24.6
		C134.9,23.6,134.1,22.7,133,22.7L133,22.7z M119,20.8c0-1.1,0.9-1.9,1.9-1.9s1.9,0.9,1.9,1.9v7.6c0,1.1-0.9,1.9-1.9,1.9
		s-1.9-0.9-1.9-1.9V20.8z M88.4,20.8c0-1.1,0.9-1.9,1.9-1.9c1.1,0,1.9,0.9,1.9,1.9v7.6c0,1.1-0.9,1.9-1.9,1.9
		c-1.1,0-1.9-0.9-1.9-1.9V20.8z M57.8,20.8c0-1.1,0.9-1.9,1.9-1.9c1.1,0,1.9,0.9,1.9,1.9v7.6c0,1.1-0.9,1.9-1.9,1.9
		c-1.1,0-1.9-0.9-1.9-1.9V20.8z M27.2,20.8c0-1.1,0.9-1.9,1.9-1.9c1.1,0,1.9,0.9,1.9,1.9v7.6c0,1.1-0.9,1.9-1.9,1.9
		c-1.1,0-1.9-0.9-1.9-1.9V20.8z M23.4,26.6v1.9c0,3.2,2.6,5.7,5.7,5.7c3.2,0,5.7-2.6,5.7-5.7v-1.9H54v1.9c0,3.2,2.6,5.7,5.7,5.7
		c3.2,0,5.7-2.6,5.7-5.7v-1.9h19.1v1.9c0,3.2,2.6,5.7,5.7,5.7c3.2,0,5.7-2.6,5.7-5.7v-1.9H115v1.9c0,3.2,2.6,5.7,5.7,5.7
		c3.2,0,5.7-2.6,5.7-5.7v-1.9h4.5v19.7h-112V26.6H23.4z M18.9,115.8V50.1h112.2v65.7C131.1,115.8,18.9,115.8,18.9,115.8z"/>
	<path id="XMLID_20_" class="st0" d="M120.1,72.9h-7.6c-1.1,0-1.9,0.9-1.9,1.9c0,1.1,0.9,1.9,1.9,1.9h7.6c1.1,0,1.9-0.9,1.9-1.9
		S121.2,72.9,120.1,72.9L120.1,72.9z"/>
	<path id="XMLID_19_" class="st0" d="M99.5,72.9h-7.6c-1.1,0-1.9,0.9-1.9,1.9c0,1.1,0.9,1.9,1.9,1.9h7.6c1.1,0,1.9-0.9,1.9-1.9
		S100.5,72.9,99.5,72.9L99.5,72.9z"/>
	<path id="XMLID_18_" class="st0" d="M78.8,72.9h-7.6c-1.1,0-1.9,0.9-1.9,1.9c0,1.1,0.9,1.9,1.9,1.9h7.6c1.1,0,1.9-0.9,1.9-1.9
		C80.7,73.8,79.9,72.9,78.8,72.9L78.8,72.9z"/>
	<path id="XMLID_17_" class="st0" d="M58.2,72.9h-7.6c-1.1,0-1.9,0.9-1.9,1.9c0,1.1,0.9,1.9,1.9,1.9h7.6c1.1,0,1.9-0.9,1.9-1.9
		C60.1,73.8,59.2,72.9,58.2,72.9L58.2,72.9z"/>
	<path id="XMLID_16_" class="st0" d="M37.5,72.9h-7.6c-1.1,0-1.9,0.9-1.9,1.9c0,1.1,0.9,1.9,1.9,1.9h7.6c1.1,0,1.9-0.9,1.9-1.9
		S38.6,72.9,37.5,72.9L37.5,72.9z"/>
	<path id="XMLID_15_" class="st0" d="M99.5,86.7h-7.6c-1.1,0-1.9,0.9-1.9,1.9c0,1.1,0.9,1.9,1.9,1.9h7.6c1.1,0,1.9-0.9,1.9-1.9
		C101.4,87.5,100.5,86.7,99.5,86.7L99.5,86.7z"/>
	<path id="XMLID_14_" class="st0" d="M78.8,86.7h-7.6c-1.1,0-1.9,0.9-1.9,1.9c0,1.1,0.9,1.9,1.9,1.9h7.6c1.1,0,1.9-0.9,1.9-1.9
		C80.7,87.5,79.9,86.7,78.8,86.7L78.8,86.7z"/>
	<path id="XMLID_13_" class="st0" d="M58.2,86.7h-7.6c-1.1,0-1.9,0.9-1.9,1.9c0,1.1,0.9,1.9,1.9,1.9h7.6c1.1,0,1.9-0.9,1.9-1.9
		C60.1,87.5,59.2,86.7,58.2,86.7L58.2,86.7z"/>
	<path id="XMLID_12_" class="st0" d="M37.5,86.7h-7.6c-1.1,0-1.9,0.9-1.9,1.9c0,1.1,0.9,1.9,1.9,1.9h7.6c1.1,0,1.9-0.9,1.9-1.9
		C39.4,87.5,38.6,86.7,37.5,86.7L37.5,86.7z"/>
	<path id="XMLID_11_" class="st0" d="M99.5,100.4h-7.6c-1.1,0-1.9,0.9-1.9,1.9c0,1.1,0.9,1.9,1.9,1.9h7.6c1.1,0,1.9-0.9,1.9-1.9
		S100.5,100.4,99.5,100.4L99.5,100.4z"/>
	<path id="XMLID_10_" class="st0" d="M120.1,86.7h-7.6c-1.1,0-1.9,0.9-1.9,1.9c0,1.1,0.9,1.9,1.9,1.9h7.6c1.1,0,1.9-0.9,1.9-1.9
		C122,87.5,121.2,86.7,120.1,86.7L120.1,86.7z"/>
	<path id="XMLID_9_" class="st0" d="M120.1,100.4h-7.6c-1.1,0-1.9,0.9-1.9,1.9c0,1.1,0.9,1.9,1.9,1.9h7.6c1.1,0,1.9-0.9,1.9-1.9
		S121.2,100.4,120.1,100.4L120.1,100.4z"/>
	<path id="XMLID_8_" class="st0" d="M78.8,100.4h-7.6c-1.1,0-1.9,0.9-1.9,1.9c0,1.1,0.9,1.9,1.9,1.9h7.6c1.1,0,1.9-0.9,1.9-1.9
		C80.7,101.3,79.9,100.4,78.8,100.4L78.8,100.4z"/>
	<path id="XMLID_7_" class="st0" d="M58.2,100.4h-7.6c-1.1,0-1.9,0.9-1.9,1.9c0,1.1,0.9,1.9,1.9,1.9h7.6c1.1,0,1.9-0.9,1.9-1.9
		C60.1,101.3,59.2,100.4,58.2,100.4L58.2,100.4z"/>
	<path id="XMLID_6_" class="st0" d="M37.5,100.4h-7.6c-1.1,0-1.9,0.9-1.9,1.9c0,1.1,0.9,1.9,1.9,1.9h7.6c1.1,0,1.9-0.9,1.9-1.9
		S38.6,100.4,37.5,100.4L37.5,100.4z"/>
	<path id="XMLID_5_" class="st0" d="M120.1,59.1h-7.6c-1.1,0-1.9,0.9-1.9,1.9c0,1.1,0.9,1.9,1.9,1.9h7.6c1.1,0,1.9-0.9,1.9-1.9
		S121.2,59.1,120.1,59.1L120.1,59.1z"/>
	<path id="XMLID_4_" class="st0" d="M99.5,59.1h-7.6C90.8,59.1,90,60,90,61c0,1.1,0.9,1.9,1.9,1.9h7.6c1.1,0,1.9-0.9,1.9-1.9
		S100.5,59.1,99.5,59.1L99.5,59.1z"/>
	<path id="XMLID_3_" class="st0" d="M78.8,59.1h-7.6c-1.1,0-1.9,0.9-1.9,1.9c0,1.1,0.9,1.9,1.9,1.9h7.6c1.1,0,1.9-0.9,1.9-1.9
		C80.7,60,79.9,59.1,78.8,59.1L78.8,59.1z"/>
	<path id="XMLID_2_" class="st0" d="M58.2,59.1h-7.6c-1.1,0-1.9,0.9-1.9,1.9c0,1.1,0.9,1.9,1.9,1.9h7.6c1.1,0,1.9-0.9,1.9-1.9
		C60.1,60,59.2,59.1,58.2,59.1L58.2,59.1z"/>
	<path id="XMLID_1_" class="st0" d="M37.5,59.1h-7.6C28.8,59.1,28,60,28,61c0,1.1,0.9,1.9,1.9,1.9h7.6c1.1,0,1.9-0.9,1.9-1.9
		S38.6,59.1,37.5,59.1L37.5,59.1z"/>
</g>
</svg>
