<?xml version="1.0" encoding="utf-8"?>
<!-- Generator: Adobe Illustrator 19.0.0, SVG Export Plug-In . SVG Version: 6.00 Build 0)  -->
<svg version="1.0" id="Capa_1" xmlns="http://www.w3.org/2000/svg" xmlns:xlink="http://www.w3.org/1999/xlink" x="0px" y="0px"
	 viewBox="0 0 150 150" style="enable-background:new 0 0 150 150;" xml:space="preserve">
<style type="text/css">
	.st0{fill:#F4A288;}
</style>
<path id="XMLID_174_" class="st0" d="M103.6,138.3c0-2.9,0-23.6,0-26.5c0-2.5-1.5-4.7-3.7-5.6v-7.6c0-3-2.5-5.5-5.5-5.5H72
	c-1,0-1.8,0.8-1.8,1.8s0.8,1.8,1.8,1.8h22.3c1.1,0,2,0.9,2,2v7.1H47.8v-7.1c0-1.1,0.9-2,2-2c1.8,0,12.5,0,14.1,0
	c1,0,1.8-0.8,1.8-1.8s-0.8-1.8-1.8-1.8h-4.9l5.3-59.5c2.4-0.3,4.3-2.4,4.3-4.9c0-2.7-2.2-4.9-4.9-4.9H8.5c-2.7,0-4.9,2.2-4.9,4.9
	c0,2.5,1.9,4.6,4.3,4.9l1,11.5c0.1,1,0.9,1.7,1.9,1.6c1-0.1,1.7-0.9,1.6-1.9l-1-11.2h49.3l-5.3,59.4h-5.7c-3,0-5.5,2.5-5.5,5.5v7.6
	c-4.2,1.8-3.7,6.3-3.7,6.4c-3.9,0-15.4,0-19.2,0c-1.7,0-3-1-3-1.9L13.1,53c-0.1-1-0.9-1.7-1.9-1.6c-1,0.1-1.7,0.9-1.6,1.9l5.2,57.6
	c0.3,2.9,3.1,5.1,6.6,5.1h2.4v4.2c-1.1,0-2.2,0.5-2.9,1.4c-1.6,1.9-0.7,3.9-0.7,4.8c1,7.4-0.1,12.3-0.2,13.4
	c-0.3,2.4,1.5,4.5,3.9,4.5h22.7c1.9,0,49.1,0,51,0C100.9,144.3,103.6,141.6,103.6,138.3z M8.5,30.1c-0.8,0-1.4-0.6-1.4-1.4
	c0-0.8,0.6-1.4,1.4-1.4h55.1c0.8,0,1.4,0.6,1.4,1.4c0,0.8-0.6,1.4-1.4,1.4C60.8,30.1,11.3,30.1,8.5,30.1z M97.9,109.3
	c1.2,0.2,2.2,1.2,2.2,2.5v4.4H44l0,0c0-2.4-0.2-5,0.5-5.9c0.5-0.7,1.3-1,2-1C99.9,109.3,97.6,109.2,97.9,109.3z M40.5,116.1
	c0,1.6,0,2.6,0,4.2H27.3v-4.2H40.5z M23.4,140.3c0.1-1,1.3-6.6,0.2-14.4l-0.2-1.6c0-0.3,0.2-0.5,0.4-0.5h1.7h15v8.3
	c0.2,5-0.4,6.6,0.5,8.7C23.5,140.7,23.2,141.1,23.4,140.3z M46.5,140.8c-1.4,0-2.5-1.1-2.5-2.5v-4.5h39.8c1,0,1.8-0.8,1.8-1.8
	s-0.8-1.8-1.8-1.8H44c0-2.2,0-8.4,0-10.6h56v10.6h-8c-1,0-1.8,0.8-1.8,1.8s0.8,1.8,1.8,1.8h8v4.5c0,1.4-1.1,2.5-2.5,2.5H46.5
	L46.5,140.8z"/>
<path id="XMLID_171_" class="st0" d="M20.3,73.1c0,8.7,7.1,15.8,15.8,15.8s15.8-7.1,15.8-15.8s-7.1-15.8-15.8-15.8
	C27.4,57.3,20.3,64.4,20.3,73.1z M36.1,60.8c6.7,0,12.2,5.5,12.2,12.2c0,6.7-5.5,12.2-12.2,12.2c-6.7,0-12.2-5.5-12.2-12.2
	C23.8,66.3,29.3,60.8,36.1,60.8z"/>
<path id="XMLID_2_" class="st0" d="M27.5,44.9h17.2c1,0,1.8-0.8,1.8-1.8s-0.8-1.8-1.8-1.8H27.5c-1,0-1.8,0.8-1.8,1.8
	S26.5,44.9,27.5,44.9z"/>
<path id="XMLID_1_" class="st0" d="M27.5,51.4h17.2c1,0,1.8-0.8,1.8-1.8s-0.8-1.8-1.8-1.8H27.5c-1,0-1.8,0.8-1.8,1.8
	S26.5,51.4,27.5,51.4z"/>
<g id="XMLID_89_">
	<path id="XMLID_157_" class="st0" d="M128.9,48.5c1.2-3.6-1.6-7.3-5.4-7.3h-1.5v-7.5c0-2.7-1.2-5.1-3.1-6.7v-9h6.2
		c3.1,0,5.6-2.5,5.6-5.6c0-3.1-2.5-5.6-5.6-5.6h-17.9c-9.8,0-13.5,8-15.3,9.6c-2,2.4-1.6,6,0.9,7.9c1.7,1.4,3.6,1.2,3.5,1.2
		c1.7,0,3.3-0.8,4.4-2.1l3-3.8c0.8-1.1,2.1-1.7,3.5-1.7h0.4v9c-1.9,1.6-3.1,4-3.1,6.7v7.5h-1.5c-3.1,0-5.6,2.5-5.6,5.6
		c0,0.6,0.1,1.2,0.3,1.7c-8,0.8-14.3,7.6-14.3,15.9v3.4c0,1.1,0.9,2,2,2s2-0.9,2-2v-3.4c0-6.6,5.4-11.9,11.9-11.9
		c2.9,0,24.2,0,27.9,0c6.6,0,11.9,5.4,11.9,11.9v64c0,6.6-5.4,11.9-11.9,11.9h-13.8h-0.1v4h0.1h13.8c8.8,0,16-7.2,16-16v-64
		C143.2,56.1,137,49.3,128.9,48.5z M107.3,13.9c-2.6,0-5,1.2-6.6,3.2c-2.9,3.3-3,4.4-4.3,4.4c0,0,0,0,0,0c-1.6-0.2-2-1.7-1.3-2.6
		l3-3.8c2.2-2.8,5.6-4.4,9.1-4.4h17.9c0.9,0,1.6,0.7,1.6,1.6s-0.7,1.6-1.6,1.6H117C113.8,13.9,110.1,13.9,107.3,13.9z M114.8,29.1
		c0.2,0,0.3,0.1,0.4,0.2c1.7,0.7,2.8,2.4,2.8,4.3v7.5h-9.4v-7.5C108.6,30.4,111.8,28.2,114.8,29.1z M111.7,25V18h3.2V25
		C113.9,24.8,112.8,24.8,111.7,25z M123.6,48.4h-20.4c-0.9,0-1.6-0.7-1.6-1.6s0.7-1.6,1.6-1.6c4.7,0,16,0,20.4,0
		c0.9,0,1.6,0.7,1.6,1.6S124.4,48.4,123.6,48.4z"/>
	<path id="XMLID_161_" class="st0" d="M113.3,131.8C113.4,131.8,113.4,131.8,113.3,131.8c0.1,0,0.1,0,0.1,0c5.8,0,12,0,16.5,0
		c2.5,0,4.6-2.1,4.6-4.6V122c0-1.1-0.9-2-2-2c-1.1,0-2,0.9-2,2v5.2c0,0.3-0.2,0.5-0.5,0.5h-16.5h-0.1h-12.1v4
		C105.2,131.8,108.9,131.8,113.3,131.8z"/>
	<path id="XMLID_162_" class="st0" d="M96.1,73.7c0-0.3,0.2-0.5,0.5-0.5h16.7h0.1H130c0.3,0,0.5,0.2,0.5,0.5v38.8c0,1.1,0.9,2,2,2
		c1.1,0,2-0.9,2-2V73.7c0-2.5-2.1-4.6-4.6-4.6h-16.5h-0.1H96.7c-2.5,0-4.6,2.1-4.6,4.6v19.9h4V73.7z"/>
	<path id="XMLID_163_" class="st0" d="M126.2,63.2c1.1,0,2-0.9,2-2c0-1.1-0.9-2-2-2H97.9c-1.1,0-2,0.9-2,2c0,1.1,0.9,2,2,2H126.2z"
		/>
	<path id="XMLID_164_" class="st0" d="M103.2,109.6h18.6c1.1,0,2-0.9,2-2c0-1.1-0.9-2-2-2h-18.6c-1.1,0-2,0.9-2,2
		C101.2,108.7,102.1,109.6,103.2,109.6z"/>
	<path id="XMLID_165_" class="st0" d="M87.5,77.1C87.5,77.1,87.5,77.1,87.5,77.1l0-0.3h0c-0.1-1-1-1.7-2-1.7c-1,0-1.8,0.7-2,1.7h0
		v0.3c0,0,0,0,0,0v16.6h4V77.1z"/>
	<polygon id="XMLID_166_" class="st0" points="101.5,140.3 97.5,144.3 113.3,144.3 113.3,140.3 	"/>
	<path id="XMLID_169_" class="st0" d="M112,80.4c-1.1,0-2.1,0.5-2.7,1.4l-4.1,5.7c-2.7,3.8-2,9.2,1.7,11.9c1.5,1.1,3.3,1.7,4.9,1.7
		c0.1,0,0.1,0,0.2,0c0.1,0,0.1,0,0.2,0c0,0,0.1,0,0.1,0c6.9-0.3,10.5-8.1,6.6-13.7l-4.1-5.7C114.1,81,113.1,80.4,112,80.4z
		 M114.7,96.3C114.7,96.3,114.7,96.3,114.7,96.3c-4,3.1-9.3-2.1-6.2-6.4l3.5-4.9l3.5,4.9C117,91.9,116.6,94.8,114.7,96.3z"/>
	<path id="XMLID_170_" class="st0" d="M103.2,117h18.6c1.1,0,2-0.9,2-2c0-1.1-0.9-2-2-2h-18.6c-1.1,0-2,0.9-2,2
		C101.2,116.1,102.1,117,103.2,117z"/>
</g>
</svg>
