<?xml version="1.0" encoding="utf-8"?>
<!-- Generator: Adobe Illustrator 19.0.0, SVG Export Plug-In . SVG Version: 6.00 Build 0)  -->
<svg version="1.0" id="Capa_1" xmlns="http://www.w3.org/2000/svg" xmlns:xlink="http://www.w3.org/1999/xlink" x="0px" y="0px"
	 viewBox="0 0 150 150" style="enable-background:new 0 0 150 150;" xml:space="preserve">
<style type="text/css">
	.st0{fill:#F4A288;}
</style>
<g>
	<path class="st0" d="M133,123.4H17c-1.1,0-1.9,0.9-1.9,1.9s0.9,1.9,1.9,1.9h116c1.1,0,1.9-0.9,1.9-1.9S134.1,123.4,133,123.4
		L133,123.4z M133,123.4"/>
	<path class="st0" d="M133,131.1H17c-1.1,0-1.9,0.9-1.9,1.9s0.9,1.9,1.9,1.9h116c1.1,0,1.9-0.9,1.9-1.9S134.1,131.1,133,131.1
		L133,131.1z M133,131.1"/>
	<path class="st0" d="M133,22.7h-6.4v-1.9c0-3.2-2.6-5.7-5.7-5.7c-3.2,0-5.7,2.6-5.7,5.7v1.9H96v-1.9c0-3.2-2.6-5.7-5.7-5.7
		c-3.2,0-5.7,2.6-5.7,5.7v1.9H65.4v-1.9c0-3.2-2.6-5.7-5.7-5.7c-3.2,0-5.7,2.6-5.7,5.7v1.9H34.8v-1.9c0-3.2-2.6-5.7-5.7-5.7
		c-3.2,0-5.7,2.6-5.7,5.7v1.9H17c-1.1,0-1.9,0.9-1.9,1.9v93.1c0,1.1,0.9,1.9,1.9,1.9h116c1.1,0,1.9-0.9,1.9-1.9V24.6
		C134.9,23.6,134.1,22.7,133,22.7L133,22.7z M119,20.8c0-1.1,0.9-1.9,1.9-1.9s1.9,0.9,1.9,1.9v7.6c0,1.1-0.9,1.9-1.9,1.9
		s-1.9-0.9-1.9-1.9V20.8z M88.4,20.8c0-1.1,0.9-1.9,1.9-1.9c1.1,0,1.9,0.9,1.9,1.9v7.6c0,1.1-0.9,1.9-1.9,1.9
		c-1.1,0-1.9-0.9-1.9-1.9V20.8z M57.8,20.8c0-1.1,0.9-1.9,1.9-1.9c1.1,0,1.9,0.9,1.9,1.9v7.6c0,1.1-0.9,1.9-1.9,1.9
		c-1.1,0-1.9-0.9-1.9-1.9V20.8z M27.2,20.8c0-1.1,0.9-1.9,1.9-1.9c1.1,0,1.9,0.9,1.9,1.9v7.6c0,1.1-0.9,1.9-1.9,1.9
		c-1.1,0-1.9-0.9-1.9-1.9V20.8z M23.4,26.6v1.9c0,3.2,2.6,5.7,5.7,5.7c3.2,0,5.7-2.6,5.7-5.7v-1.9H54v1.9c0,3.2,2.6,5.7,5.7,5.7
		c3.2,0,5.7-2.6,5.7-5.7v-1.9h19.1v1.9c0,3.2,2.6,5.7,5.7,5.7c3.2,0,5.7-2.6,5.7-5.7v-1.9h19.1v1.9c0,3.2,2.6,5.7,5.7,5.7
		c3.2,0,5.7-2.6,5.7-5.7v-1.9h4.5v19.7H18.9V26.6H23.4z M18.9,115.8V50.1h112.2v65.7H18.9z M18.9,115.8"/>
	<path class="st0" d="M120.1,72.9h-7.6c-1.1,0-1.9,0.9-1.9,1.9c0,1.1,0.9,1.9,1.9,1.9h7.6c1.1,0,1.9-0.9,1.9-1.9
		C122,73.8,121.2,72.9,120.1,72.9L120.1,72.9z M120.1,72.9"/>
	<path class="st0" d="M99.5,72.9h-7.6c-1.1,0-1.9,0.9-1.9,1.9c0,1.1,0.9,1.9,1.9,1.9h7.6c1.1,0,1.9-0.9,1.9-1.9
		C101.4,73.8,100.5,72.9,99.5,72.9L99.5,72.9z M99.5,72.9"/>
	<path class="st0" d="M78.8,72.9h-7.6c-1.1,0-1.9,0.9-1.9,1.9c0,1.1,0.9,1.9,1.9,1.9h7.6c1.1,0,1.9-0.9,1.9-1.9
		C80.7,73.8,79.9,72.9,78.8,72.9L78.8,72.9z M78.8,72.9"/>
	<path class="st0" d="M58.2,72.9h-7.6c-1.1,0-1.9,0.9-1.9,1.9c0,1.1,0.9,1.9,1.9,1.9h7.6c1.1,0,1.9-0.9,1.9-1.9
		C60.1,73.8,59.2,72.9,58.2,72.9L58.2,72.9z M58.2,72.9"/>
	<path class="st0" d="M37.5,72.9h-7.6c-1.1,0-1.9,0.9-1.9,1.9c0,1.1,0.9,1.9,1.9,1.9h7.6c1.1,0,1.9-0.9,1.9-1.9
		C39.4,73.8,38.6,72.9,37.5,72.9L37.5,72.9z M37.5,72.9"/>
	<path class="st0" d="M99.5,86.7h-7.6c-1.1,0-1.9,0.9-1.9,1.9c0,1.1,0.9,1.9,1.9,1.9h7.6c1.1,0,1.9-0.9,1.9-1.9
		C101.4,87.5,100.5,86.7,99.5,86.7L99.5,86.7z M99.5,86.7"/>
	<path class="st0" d="M78.8,86.7h-7.6c-1.1,0-1.9,0.9-1.9,1.9c0,1.1,0.9,1.9,1.9,1.9h7.6c1.1,0,1.9-0.9,1.9-1.9
		C80.7,87.5,79.9,86.7,78.8,86.7L78.8,86.7z M78.8,86.7"/>
	<path class="st0" d="M58.2,86.7h-7.6c-1.1,0-1.9,0.9-1.9,1.9c0,1.1,0.9,1.9,1.9,1.9h7.6c1.1,0,1.9-0.9,1.9-1.9
		C60.1,87.5,59.2,86.7,58.2,86.7L58.2,86.7z M58.2,86.7"/>
	<path class="st0" d="M37.5,86.7h-7.6c-1.1,0-1.9,0.9-1.9,1.9c0,1.1,0.9,1.9,1.9,1.9h7.6c1.1,0,1.9-0.9,1.9-1.9
		C39.4,87.5,38.6,86.7,37.5,86.7L37.5,86.7z M37.5,86.7"/>
	<path class="st0" d="M99.5,100.4h-7.6c-1.1,0-1.9,0.9-1.9,1.9c0,1.1,0.9,1.9,1.9,1.9h7.6c1.1,0,1.9-0.9,1.9-1.9
		C101.4,101.3,100.5,100.4,99.5,100.4L99.5,100.4z M99.5,100.4"/>
	<path class="st0" d="M120.1,86.7h-7.6c-1.1,0-1.9,0.9-1.9,1.9c0,1.1,0.9,1.9,1.9,1.9h7.6c1.1,0,1.9-0.9,1.9-1.9
		C122,87.5,121.2,86.7,120.1,86.7L120.1,86.7z M120.1,86.7"/>
	<path class="st0" d="M120.1,100.4h-7.6c-1.1,0-1.9,0.9-1.9,1.9c0,1.1,0.9,1.9,1.9,1.9h7.6c1.1,0,1.9-0.9,1.9-1.9
		C122,101.3,121.2,100.4,120.1,100.4L120.1,100.4z M120.1,100.4"/>
	<path class="st0" d="M78.8,100.4h-7.6c-1.1,0-1.9,0.9-1.9,1.9c0,1.1,0.9,1.9,1.9,1.9h7.6c1.1,0,1.9-0.9,1.9-1.9
		C80.7,101.3,79.9,100.4,78.8,100.4L78.8,100.4z M78.8,100.4"/>
	<path class="st0" d="M58.2,100.4h-7.6c-1.1,0-1.9,0.9-1.9,1.9c0,1.1,0.9,1.9,1.9,1.9h7.6c1.1,0,1.9-0.9,1.9-1.9
		C60.1,101.3,59.2,100.4,58.2,100.4L58.2,100.4z M58.2,100.4"/>
	<path class="st0" d="M37.5,100.4h-7.6c-1.1,0-1.9,0.9-1.9,1.9c0,1.1,0.9,1.9,1.9,1.9h7.6c1.1,0,1.9-0.9,1.9-1.9
		C39.4,101.3,38.6,100.4,37.5,100.4L37.5,100.4z M37.5,100.4"/>
	<path class="st0" d="M120.1,59.1h-7.6c-1.1,0-1.9,0.9-1.9,1.9c0,1.1,0.9,1.9,1.9,1.9h7.6c1.1,0,1.9-0.9,1.9-1.9
		C122,60,121.2,59.1,120.1,59.1L120.1,59.1z M120.1,59.1"/>
	<path class="st0" d="M99.5,59.1h-7.6c-1.1,0-1.9,0.9-1.9,1.9c0,1.1,0.9,1.9,1.9,1.9h7.6c1.1,0,1.9-0.9,1.9-1.9
		C101.4,60,100.5,59.1,99.5,59.1L99.5,59.1z M99.5,59.1"/>
	<path class="st0" d="M78.8,59.1h-7.6c-1.1,0-1.9,0.9-1.9,1.9c0,1.1,0.9,1.9,1.9,1.9h7.6c1.1,0,1.9-0.9,1.9-1.9
		C80.7,60,79.9,59.1,78.8,59.1L78.8,59.1z M78.8,59.1"/>
	<path class="st0" d="M58.2,59.1h-7.6c-1.1,0-1.9,0.9-1.9,1.9c0,1.1,0.9,1.9,1.9,1.9h7.6c1.1,0,1.9-0.9,1.9-1.9
		C60.1,60,59.2,59.1,58.2,59.1L58.2,59.1z M58.2,59.1"/>
	<path class="st0" d="M37.5,59.1h-7.6c-1.1,0-1.9,0.9-1.9,1.9c0,1.1,0.9,1.9,1.9,1.9h7.6c1.1,0,1.9-0.9,1.9-1.9
		C39.4,60,38.6,59.1,37.5,59.1L37.5,59.1z M37.5,59.1"/>
</g>
</svg>
